<svg xmlns="http://www.w3.org/2000/svg"  viewBox="0 0 64 64" width="64px" height="64px" baseProfile="basic"><ellipse cx="32.025" cy="61" opacity=".3" rx="23" ry="3"/><path fill="#9c34c2" d="M50.002,51.005h-36c-3.314,0-6-2.686-6-6v-25c0-3.314,2.686-6,6-6h36c3.314,0,6,2.686,6,6v25	C56.002,48.319,53.316,51.005,50.002,51.005z"/><path fill="#fff" d="M23,19.005c2.761,0,5-2.238,5-5l0,0H14.002c-3.314,0-6,2.686-6,6V37l0,0 c2.761,0,5-2.238,5-5V20.005c0-0.552,0.449-1,1-1H23z" opacity=".3"/><path d="M56.002,45.005V28c-2.761,0-5,2.238-5,5v11.058c0,1.075-0.872,1.947-1.947,1.947H35 c-2.761,0-5,2.239-5,5l0,0h20.002C53.316,51.005,56.002,48.319,56.002,45.005z" opacity=".15"/><path fill="none" stroke="#fff" stroke-linecap="round" stroke-linejoin="round" stroke-miterlimit="10" stroke-width="3" d="M11.502,25.5v-5.495c0-1.379,1.122-2.5,2.5-2.5H16.5"/><path fill="orange" d="M38.627,33.164L29,46h20c1.648,0,2.589-1.882,1.6-3.2l-7.227-9.636	C42.187,31.582,39.813,31.582,38.627,33.164z"/><path fill="#ffce29" d="M23.915,28.127L14.447,42.33C13.401,43.899,14.525,46,16.411,46H40L28.085,28.127	C27.093,26.639,24.907,26.639,23.915,28.127z"/><circle cx="38.5" cy="24.5" r="3.5" fill="#ffe691"/></svg>